<svg xmlns="http://www.w3.org/2000/svg" viewBox="0 0 1080 1080"><style>@keyframes Scintillement{0%,to{transform:scale(.9)}50%{transform:scale(1.4)}}@-webkit-keyframes Scintillement2{0%,to{-webkit-transform:scale(.9);transform:scale(.9)}50%{-webkit-transform:scale(1.5);transform:scale(1.5)}}@keyframes Scintillement2{0%,to{-webkit-transform:scale(.9);transform:scale(.9)}50%{-webkit-transform:scale(1.5);transform:scale(1.5)}}@keyframes dash{0%,to{stroke-dashoffset:360}33%,66%{stroke-dashoffset:0}}@keyframes dash2{0%,to{stroke-dashoffset:160}33%,66%{stroke-dashoffset:0}}@keyframes dash3{0%,to{stroke-dashoffset:200}33%,66%{stroke-dashoffset:0}}@keyframes dash4{0%,to{stroke-dashoffset:-360}33%,66%{stroke-dashoffset:0}}@keyframes pop{0%,to{transform:scale(.7)}33%,66%{transform:scale(1.25)}}@keyframes pop2{0%,to{transform:scale(.95)}33%,66%{transform:scale(1.6)}}</style><g id="CONNECTIVITE-V4-anim"><circle cx="540" cy="540" r="454.606" fill="#0c2536" id="Atmosphere"/><g id="Planete"><circle cx="540" cy="540" r="341.688" fill="#225560"/><g fill="#35bd9b"><path d="M444.037 207.229s15.678 60.151 57.468 97.1c32.72 28.932 92.87 37.548 98.091 32.44 11.89-11.632-43.864-37.394-15.987-49.284s59.919-2.712 76.428 22.789c21.808 33.688-23.45 37.321-35.34 61.1-6.2 12.4 13.339 28.288 15.523 49.872 2 19.817-6.471 44.662 3.963 57.468 21.8 26.752 70.349-21.484 70.349-21.484s-16.173-31.131.991-45 33.688 6.147 46.569 3.074-12.881-33.688-12.881-33.688 31.569-13.872 51.034 2.972 8.5 28.655 8.5 57.468-40.471 28.813-40.471 28.813-6.179-26.831-22.032-28.813c-8.274-1.034-8.77 26.255-22.789 50.532-12.845 22.244-169.594 154.569-2.973 254.642 52.254 31.385 118.566-36.83 118.566-36.83l36-83.725 10.569-108.33-30.386-117.574-61.239-96.441-91.348-68.257-102.055-37.761H498.532z"/><path d="M544.7 379.756c16.588-7.059 60.185 15.73 60.185 33.565s-31.707 32.7-40.624 32.7c-4.771 0-2.187-16.948-7.927-33.789-4.992-14.639-19.352-29.193-11.634-32.476zM281.176 310.751s12.664 10.675 16.218 26.019c2.334 10.07-9.532 21.1-1.981 29.982 16.578 19.513 54.887 25 53.5 34.679-2.972 20.808-31.706 7.927-54.495 21.8s-22.789 41.925 0 47.639 58.459-52.593 80.257-44.666c7.678 2.792-3.784 38.129 13.211 46.569 29.725 14.761 73.325-1.8 68.037 59.449-4.734 54.826-78.276 25.1-98.092 34.679-16.414 7.933-7.43 39.633-30.467 45.578s-15.111-19.816-36.909-19.816-40.624 25.761-36.661 46.568 55.946 13.872 71.57 32.7-24.5 28.036 2 45.229 50.283 4.312 102.8 5.3 107.009 27 135.743 52.513c12.824 11.387 1.169 41.935 9.909 62.422 10.843 25.419 40.623 40.147 40.623 40.147l-98.422 7.083-115.5-26.425-74.872-46.02s13.346-4.51 14.337-33.244-81.248-32.7-102.055-67.376-37.468-104.4-37.468-104.4l-6.679-111.931 27.3-90.275z"/><path d="M349.908 642.2c-3.963-10.9 37.872-12.881 52.609-29.725 16.248-18.571 21.7 7.927 14.767 24.771s-35.285 2.36-40.432 18.024-22.98-2.17-26.944-13.07z"/></g><path d="M809.507 336.77a336.38 336.38 0 0127.712 134.1c0 186.419-151.122 337.542-337.541 337.542-110.11 0-207.893-52.733-269.507-134.311C282.05 793.8 401.236 877.541 540 877.541c186.419 0 337.541-151.122 337.541-337.541a336.033 336.033 0 00-68.034-203.23z" fill="#1d1d1b" opacity=".2"/><path d="M540 202.459c186.419 0 337.541 151.122 337.541 337.541S726.419 877.541 540 877.541 202.459 726.419 202.459 540 353.581 202.459 540 202.459m0-12a348.479 348.479 0 10136.061 27.473A347.368 347.368 0 00540 190.459z" fill="#225560"/></g><path d="M884.562 188.938l-4.677 17.036a2.432 2.432 0 01-4.7-.035l-4.4-17-16.651-4.163a2.431 2.431 0 01-.069-4.7l16.72-4.711 4.405-16.485a2.432 2.432 0 014.689-.035l4.682 16.52 16.465 4.714a2.431 2.431 0 01-.071 4.694z" style="-webkit-animation:Scintillement2 2.3s ease-in-out infinite;animation:Scintillement2 2.3s ease-in-out infinite;-webkit-transform-origin:50% 50%;-ms-transform-origin:50% 50%;transform-origin:50% 50%;transform-box:fill-box" fill="#225560"/><path d="M170.873 781.663L166.2 798.7a2.432 2.432 0 01-4.7-.034l-4.4-17-16.653-4.166a2.431 2.431 0 01-.069-4.7l16.72-4.711 4.4-16.485a2.432 2.432 0 014.689-.036l4.681 16.521 16.466 4.714a2.431 2.431 0 01-.071 4.694z" style="animation:Scintillement2 2s ease-in-out infinite;transform-origin:50% 50%;transform-box:fill-box" fill="#225560"/><path d="M609.28 105.829l-7.43 27.065a3.863 3.863 0 01-7.465-.055l-6.991-27.01-26.454-6.614a3.863 3.863 0 01-.111-7.466l26.565-7.484 7-26.191a3.863 3.863 0 017.449-.056l7.439 26.247 26.159 7.489a3.863 3.863 0 01-.113 7.458z" style="animation:Scintillement 1.7s ease-in-out infinite;transform-origin:50% 50%;transform-box:fill-box" fill="#f5faff"/><path d="M93.333 478.24l-5.288 19.26a2.75 2.75 0 01-5.314-.038l-4.975-19.222-18.829-4.707a2.75 2.75 0 01-.079-5.314l18.908-5.327 4.981-18.642a2.75 2.75 0 015.3-.04l5.294 18.682 18.619 5.33a2.75 2.75 0 01-.08 5.309z" style="-webkit-animation:Scintillement2 2.3s ease-in-out infinite;animation:Scintillement2 2.3s ease-in-out infinite;-webkit-transform-origin:50% 50%;-ms-transform-origin:50% 50%;transform-origin:50% 50%;transform-box:fill-box" fill="#f5faff"/><path d="M964.665 632.629l-5.288 19.264a2.75 2.75 0 01-5.314-.039l-4.976-19.225-18.828-4.707a2.75 2.75 0 01-.079-5.315l18.907-5.327 4.982-18.642a2.749 2.749 0 015.3-.039l5.295 18.681 18.619 5.331a2.749 2.749 0 01-.08 5.308z" style="animation:Scintillement2 2s ease-in-out infinite;transform-origin:50% 50%;transform-box:fill-box" fill="#f5faff"/><path d="M423.4 976.338l-7.145 26.028a3.715 3.715 0 01-7.179-.053l-6.723-25.975-25.439-6.36a3.715 3.715 0 01-.107-7.18l25.546-7.2 6.73-25.187a3.715 3.715 0 017.164-.054L423.4 955.6l25.156 7.2a3.715 3.715 0 01-.108 7.172z" style="animation:Scintillement 1.7s ease-in-out infinite;transform-origin:50% 50%;transform-box:fill-box" fill="#225560"/><path d="M252.3 487.532s-2.869 104.7 42.29 170.753 130.951 104.7 130.951 104.7" style="animation:dash 4s ease-in-out alternate infinite" fill="none" stroke="#fe9920" stroke-miterlimit="10" stroke-width="28" stroke-dasharray="360" stroke-dashoffset="360"/><path d="M252.3 487.532s48.379 36.776 136.595 36.831" style="animation:dash2 4s ease-in-out alternate infinite" fill="none" stroke="#fe9920" stroke-miterlimit="10" stroke-width="28" stroke-dasharray="160" stroke-dashoffset="160"/><path d="M425.541 521.623C525.953 503.525 672.587 390.1 672.587 390.1M702.642 622.571s21.317-108.289-23.3-217.094" style="animation:dash4 4s ease-in-out alternate infinite" fill="none" stroke="#fe9920" stroke-miterlimit="10" stroke-width="28" stroke-dasharray="360" stroke-dashoffset="-360"/><path d="M663.07 371.182C609.812 272.128 535.676 238.5 535.676 238.5" style="animation:dash3 4s ease-in-out alternate infinite" fill="none" stroke="#fe9920" stroke-miterlimit="10" stroke-width="28" stroke-dasharray="200" stroke-dashoffset="200"/><g style="animation:pop 4s ease-in-out alternate infinite;transform-origin:50% 50%;transform-box:fill-box"><g opacity=".2" fill="#1d1d1b"><path d="M434.8 806.486a28.129 28.129 0 1128.128-28.129 28.161 28.161 0 01-28.128 28.129z"/><path d="M434.8 756.229a22.129 22.129 0 11-22.129 22.129 22.129 22.129 0 0122.129-22.129m0-12a34.129 34.129 0 1034.128 34.129 34.167 34.167 0 00-34.128-34.129z"/></g><path d="M425.542 791.109a28.128 28.128 0 1128.128-28.128 28.16 28.16 0 01-28.128 28.128z" fill="#fe9920"/><path d="M425.541 740.853a22.129 22.129 0 11-22.128 22.128 22.129 22.129 0 0122.128-22.128m0-12a34.129 34.129 0 1034.129 34.128 34.167 34.167 0 00-34.129-34.128z" fill="#f5faff"/></g><g style="animation:pop2 4s ease-in-out alternate infinite;transform-origin:50% 50%;transform-box:fill-box"><g opacity=".2" fill="#1d1d1b"><circle cx="261.558" cy="502.908" r="28.128"/><path d="M261.558 480.78a22.129 22.129 0 11-22.129 22.128 22.128 22.128 0 0122.129-22.128m0-12a34.129 34.129 0 1034.128 34.128 34.167 34.167 0 00-34.128-34.128z"/></g><circle cx="252.3" cy="487.532" r="28.128" fill="#fe9920"/><path d="M252.3 465.4a22.129 22.129 0 11-22.129 22.129A22.129 22.129 0 01252.3 465.4m0-12a34.129 34.129 0 1034.128 34.129A34.167 34.167 0 00252.3 453.4z" fill="#f5faff"/></g><g style="animation:pop 4s ease-in-out alternate infinite;transform-origin:50% 50%;transform-box:fill-box"><g opacity=".2" fill="#1d1d1b"><circle cx="416.325" cy="539.239" r="28.128"/><path d="M416.325 517.11a22.129 22.129 0 11-22.125 22.129 22.129 22.129 0 0122.128-22.129m0-12a34.129 34.129 0 1034.129 34.129 34.167 34.167 0 00-34.129-34.129z"/></g><circle cx="407.067" cy="523.862" r="28.128" fill="#fe9920"/><path d="M407.067 501.734a22.128 22.128 0 11-22.129 22.128 22.128 22.128 0 0122.129-22.128m0-12a34.128 34.128 0 1034.133 34.128 34.167 34.167 0 00-34.128-34.128z" fill="#f5faff"/></g><g style="animation:pop 4s ease-in-out alternate infinite;transform-origin:50% 50%;transform-box:fill-box"><g opacity=".2" fill="#1d1d1b"><path d="M711.9 666.076a28.129 28.129 0 1128.129-28.128 28.16 28.16 0 01-28.129 28.128z"/><path d="M711.9 615.819a22.129 22.129 0 11-22.129 22.129 22.129 22.129 0 0122.129-22.129m0-12a34.129 34.129 0 1034.128 34.129 34.167 34.167 0 00-34.128-34.129z"/></g><path d="M702.643 650.7a28.129 28.129 0 1128.128-28.129 28.16 28.16 0 01-28.128 28.129z" fill="#fe9920"/><path d="M702.642 600.443a22.129 22.129 0 11-22.128 22.128 22.129 22.129 0 0122.128-22.128m0-12a34.129 34.129 0 1034.129 34.128 34.167 34.167 0 00-34.129-34.128z" fill="#f5faff"/></g><g style="animation:pop2 4s ease-in-out alternate infinite;transform-origin:50% 50%;transform-box:fill-box"><g opacity=".2" fill="#1d1d1b"><path d="M681.846 433.605a28.128 28.128 0 1128.128-28.128 28.16 28.16 0 01-28.128 28.128z"/><path d="M681.845 383.349a22.129 22.129 0 11-22.128 22.128 22.128 22.128 0 0122.128-22.128m0-12a34.129 34.129 0 1034.129 34.128 34.167 34.167 0 00-34.129-34.128z"/></g><path d="M672.587 418.229a28.129 28.129 0 1128.129-28.129 28.16 28.16 0 01-28.129 28.129z" fill="#fe9920"/><path d="M672.587 367.972a22.129 22.129 0 11-22.128 22.128 22.129 22.129 0 0122.128-22.129m0-12a34.129 34.129 0 1034.129 34.129 34.167 34.167 0 00-34.129-34.129z" fill="#f5faff"/></g><g style="animation:pop 4s ease-in-out alternate infinite;transform-origin:50% 50%;transform-box:fill-box"><g opacity=".2" fill="#1d1d1b"><path d="M544.934 282.009a28.129 28.129 0 1128.129-28.128 28.16 28.16 0 01-28.129 28.128z"/><path d="M544.934 231.752a22.129 22.129 0 11-22.128 22.129 22.13 22.13 0 0122.128-22.129m0-12a34.129 34.129 0 1034.129 34.129 34.167 34.167 0 00-34.129-34.129z"/></g><path d="M535.676 266.633A28.129 28.129 0 11563.8 238.5a28.161 28.161 0 01-28.124 28.133z" fill="#fe9920"/><path d="M535.676 216.376a22.129 22.129 0 11-22.129 22.124 22.128 22.128 0 0122.129-22.128m0-12A34.129 34.129 0 10569.8 238.5a34.167 34.167 0 00-34.128-34.128z" fill="#f5faff"/></g></g></svg>
