<svg xmlns="http://www.w3.org/2000/svg" viewBox="0 0 1080 1080">
	<style>
		#Pouce{
animation: Flex 2s ease-in-out infinite;
transform-origin: bottom;
transform-box: fill-box;
}

@keyframes Flex {
    0%   { transform: rotate(-1.5deg); }
    50%  { transform: rotate(4deg); }
    100% { transform: rotate(-1.5deg); }
}
</style>
<title>pouce</title>
<g id="Pouce-anim">
  <g>
    <circle id="Fond" cx="540" cy="553.633" r="434.128" style="fill: #333"/>
    <path d="M691.858,904.108a383.014,383.014,0,0,1-306.416-1.184" style="fill: none;stroke: #f5faff;stroke-miterlimit: 10;stroke-width: 55.5529499258114px"/>
    <path d="M385.444,204.342a383.018,383.018,0,0,1,306.628-1.091" style="fill: none;stroke: #f5faff;stroke-miterlimit: 10;stroke-width: 55.5529499258114px"/>
    <path d="M691.858,203.159C827.2,261.881,921.863,396.7,921.863,553.633S827.2,845.386,691.858,904.108" style="fill: none;stroke: #c33;stroke-miterlimit: 10;stroke-width: 55.5529499258114px"/>
    <path d="M385.444,902.925c-133.9-59.335-227.307-193.4-227.307-349.292s93.409-289.956,227.307-349.291" style="fill: none;stroke: #306dd9;stroke-miterlimit: 10;stroke-width: 55.5529499258114px"/>
    <g id="Poignzt">
      <path d="M767.376,489.284,739.633,692.073S725.272,747.8,753.505,798.422c12.023,21.559,21.855,36.258,35.365,46.5L636.336,927.23l-205.7-7.46c-6.219-59.266,7.788-207.88,7.788-207.88l8.914-107.752Z" style="fill: #ef8333"/>
      <path d="M755.485,576.2s-5.567,68.031-14.531,127.433c-14,92.807,43.1,137.315,43.1,137.315L657.63,925.685l-131.7,9.553c1.25-67.9,8.389-117.013,8.389-117.013l12.845-143.348Z" style="fill: #181818;opacity: 0.30000000000000004"/>
      <path d="M428.954,703.633S416.8,791.576,416.733,816.262s-.955,41.832,4.578,100.426l21.483-.16c-5.437-55.7-4.088-69.089-4.088-94.214s13.588-118.681,13.588-118.681Z" style="fill: #40291a"/>
      <path d="M749.338,732.724c0,69.027,70.971,108.409,70.971,108.409l-37.19.775s-55.992-26.407-57.37-112.181c-1.164-72.459,31.168-142.021,31.168-142.021l9.45-1.583S749.338,663.7,749.338,732.724Z" style="fill: #40291a"/>
    </g>
    <g id="Pouce">
      <path d="M720.917,691.633l79.046-99.523a390.881,390.881,0,0,0-6.165-82.547C785.566,464.821,757.46,414.8,757.46,414.8s-9.81-67.928,23.478-120.186c43.082-67.634,82.856-154.158,14.181-183.046-153.165-64.428-165.137,160.4-165.137,160.4L592.33,244.22s-42.318-5.187-121.541,27.743-116.257,66.055-116.257,66.055-46.719,146.233-37.651,256.954,69.61,193.544,69.61,193.544,64.126,23.228,128.555,21.8S623.4,786.521,623.4,786.521Z" style="fill: #ef8333"/>
      <path d="M720.917,691.633l84.359-119.31-16.823-91.989-34.362-72.661,9.426-80.8,55.718-103.178,21.118-69.081s-23.162,7.874-58.6,50.827C756.381,236.2,738.7,297.787,738.7,297.787s-12.425-11.812-46.843-20.045-50.192-3.8-50.192-3.8l43.7,75.385-12.066,76.6-10.607-5.868s14.729-36.073-.3-74.337c-5.285-13.451-78.138-64.509-78.138-64.509s-3.045,49.5-13.067,60.957-138.2,61.143-138.2,61.143l136.769-26.065,107.381,52.974,9.306,18.678-7.874,109.463-38.459,22.192s36.533-52.736,26.034-100.938c-7.4-33.953-100.076-70.155-100.076-70.155s-13.493,67.292-25.662,86.62c-4.51,7.163-30.067,4.295-65.861,25.056-40.326,23.389-70.981,61.4-70.981,61.4l105.343-41.36,118.7,36.83,11.154,96.322-22.588,21.527s13.921-39.662-7.061-86.433c-11.826-26.36-89.468-31.5-89.468-31.5s16.943,65.382,15.511,85.9-165.362,80.829-165.362,80.829l16.7,43.851,147.828,29.709,89.081-31.7Z" style="fill: #181818;opacity: 0.30000000000000004"/>
      <path d="M438.706,822.314s30.782,3.579,84.472-.716S623.4,786.52,623.4,786.52s-39.328,16.672-103.757,18.1S393.65,778.852,393.65,778.852s-58.268-74.179-67.336-184.9S364.971,346.26,364.971,346.26s30.544-29.589,109.767-62.519,112.153-31.975,112.153-31.975L672.029,335s5.689,15.079,4.107,44.191c-1.536,28.261-9.068,40.8-9.068,40.8s-56.315-43.191-90.915-54.406S403.628,415.7,403.628,415.7s130.766-29.35,163.219-27.2,107.38,66.576,107.38,66.576,8.591,12.408.955,59.655-32.651,56.785-32.651,56.785-76.162-37.456-123.886-39.6-132.914,63.474-132.914,63.474,104.548-48.321,138.194-41.163,90.885,24.7,96.434,40.1,7.725,68.115,3.43,81S557.3,729.251,557.3,729.251L546.8,717.8l12.707-11.276s5.906-27.621-46.83,16.763a155.976,155.976,0,0,0-29.947,33.885s15.391-14.5,26.845-20.045,14.079-3.579,14.079-3.579,17.3,19.448,29.828,17.658,79.969-45.338,89.634-64.667-2.387-89.723-2.387-89.723,44.4,3.306,54.614-78.387c4.295-34.361,6.443-59.774,3.222-71.945a30.343,30.343,0,0,0-13.423-17.717,193.432,193.432,0,0,0,10.376-42.872,145.586,145.586,0,0,0-5.544-58.961l-48.311-52.987S638.138,59.2,791.3,123.624c68.675,28.889,24.469,98.806-18.613,166.44-33.288,52.259-25.444,127.783-25.444,127.783s31.14,45.816,39.373,90.559,5.065,77.331,5.065,77.331l-98.2,131.107,34.787-23.029,23.076-19.741,55.141-72.785s9.8-47.468-6.459-108.591C785.9,439.465,762.8,406.215,762.8,406.215S757.68,365.986,775.93,322.9c29.651-69.966,65.393-85.645,72.479-157.017,3.087-31.1-37.279-65.238-73.173-71.177C619.654,68.909,623.468,254.1,623.468,254.1l-28.177-23.971s-52.237,1.777-129.573,29.694c-77.293,27.918-120.99,69.663-120.99,69.663s-57.265,162.259-42.223,276.833c15.043,114.531,75.646,195.638,75.646,195.638l38.582,14.306Z" style="fill: #40291a"/>
    </g>
    <path d="M849.184,777.787A383.242,383.242,0,0,1,691.858,904.108" style="fill: none;stroke: #c33;stroke-miterlimit: 10;stroke-width: 55.5529499258114px"/>
    <path d="M691.858,904.108a383.177,383.177,0,0,1-292.441,4.678" style="fill: none;stroke: #f5faff;stroke-miterlimit: 10;stroke-width: 55.5529499258114px"/>
  </g>
</g>
</svg>
