<svg xmlns="http://www.w3.org/2000/svg" viewBox="0 0 1080 1080">
	<style>
		#B4, #Bd1, #Bd3{
    animation: updown .8s ease-in-out infinite alternate;
    transform-origin: bottom;
    transform-box: fill-box;
}

#B2, #B5, #Bd2{
    animation: updown 1.4s ease-in-out infinite alternate;
    transform-origin: bottom;
    transform-box: fill-box;
}

#B1,#B3{
    animation: updown 1.1s ease-in-out infinite alternate;
    transform-origin: bottom;
    transform-box: fill-box;
}

@keyframes updown {
    from{
        transform: scaleY(.7);
    }
    to{
        transform: scaleY(1.3);
    }
}

#Ng1{
    animation: cloud 4.5s linear infinite;
    transform-origin: bottom;
    transform-box: fill-box;
}

@keyframes cloud {
    0%   { opacity: 0; transform: translateX(-75px); }
    50%  { opacity: 1; transform: translateX(50px); }
    100% { opacity: 0; transform: translateX(200px); }
}

#Ng2{
    animation: cloud2 3s linear infinite;
    transform-origin: bottom;
    transform-box: fill-box;
}

@keyframes cloud2 {
    0%   { opacity: 0; transform: translateX(-100px); }
    50%  { opacity: 1; transform: translateX(0px); }
    100% { opacity: 0; transform: translateX(100px); }
}

#Nd{
    animation: cloud3 7.5s linear infinite;
    transform-origin: bottom;
    transform-box: fill-box;
}

@keyframes cloud3 {
    0%   { opacity: 0; transform: translateX(-60px); }
    50%  { opacity: 1; transform: translateX(0px); }
    100% { opacity: 0; transform: translateX(110px); }
}

#L1, #L3, #L5, #L7, #L9{
    animation: txt 1.4s ease-in-out infinite;
}

@keyframes txt {
    0%   { opacity: 0; }
    50% { opacity: 1; }
    100%  { opacity: 0; }
}

#L2, #L4, #L6, #L8{
    animation: txt2 1.4s ease-in-out infinite;
}

@keyframes txt2 {
    0%   { opacity: 1; }
    50% { opacity: 0; }
    100%  { opacity: 1; }
}
</style>
<title>cloud</title>
<g id="TECHONOLOGIE-V5-anim">
  <rect id="B1" x="88.345" y="571.789" width="30.716" height="229.624" rx="15.358" style="fill: #fe9920"/>
  <rect id="B2" x="148.127" y="654.841" width="30.716" height="146.572" rx="15.358" style="fill: #f9581d"/>
  <rect id="B3" x="207.908" y="623.498" width="30.716" height="177.915" rx="15.358" style="fill: #f9581d"/>
  <rect id="B4" x="267.69" y="607.064" width="30.716" height="194.349" rx="15.358" style="fill: #fe9920"/>
  <rect id="B5" x="327.472" y="638.874" width="30.716" height="162.538" rx="15.358" style="fill: #f9581d"/>
  <rect id="Bd1" x="829.423" y="605.049" width="30.716" height="195.895" rx="15.358" style="fill: #f9581d"/>
  <rect id="Bd2" x="889.205" y="586.954" width="30.716" height="213.99" rx="15.358" style="fill: #fe9920"/>
  <rect id="Bd3" x="948.987" y="621.98" width="30.716" height="178.964" rx="15.358" style="fill: #f9581d"/>
  <path id="Nd" d="M952.275,239.992H713.633s-22.55-7-19.248-37.056,38.205-33.527,38.205-33.527S717.419,120,747.857,105.948s60.882,10.165,60.882,10.165,35.8-52.421,93.351-27.59S941.045,158.6,941.045,158.6,980,170.741,980,200.539,952.275,239.992,952.275,239.992Z" style="fill: #225560"/>
  <path id="Ng1" d="M315.906,277.936H128.367s-24.27-13.11-24.27-38.18,27.58-34.04,27.58-34.04-3.586-34.039,28.682-39.559,42.748,8.51,42.748,8.51,28.131-43.7,73.361-23,30.613,58.419,30.613,58.419,30.613,10.12,30.613,34.96S315.906,277.936,315.906,277.936Z" style="fill: #225560"/>
  <path id="Ng2" d="M360.975,427.333H261.2s-12.912-6.975-12.912-20.312,14.673-18.11,14.673-18.11-1.908-18.109,15.259-21.046,22.743,4.528,22.743,4.528,14.965-23.249,39.028-12.237,16.287,31.08,16.287,31.08,16.286,5.384,16.286,18.6S360.975,427.333,360.975,427.333Z" style="fill: #225560"/>
  <g id="PC_Nuage" data-name="PC+Nuage">
    <ellipse cx="534.024" cy="939.819" rx="445.679" ry="58.335" style="fill: #225560"/>
    <path d="M874.227,977.505l-60.752-60.752L145,922.7l55.869,55.869c81.636,12.017,200.641,19.587,333.157,19.587C670.4,998.154,792.475,990.136,874.227,977.505Z" style="fill: #1d1d1b;opacity: 0.2"/>
    <g>
      <path d="M813.479,889.879c-.119,0-.239,0-.359-.011l-457.1-27.083a6,6,0,0,1-5.581-6.866l48.881-330.935a6,6,0,0,1,5.936-5.124H866.334a6,6,0,0,1,5.936,6.877L819.41,884.755A6,6,0,0,1,813.479,889.879Z" style="fill: #f5faff"/>
      <path d="M866.334,525.86,813.475,883.879,356.374,856.8,405.255,525.86H866.334m0-12H405.255a12,12,0,0,0-11.872,10.247L344.5,855.042a12,12,0,0,0,11.161,13.733l457.1,27.083c.24.014.481.021.719.021a12,12,0,0,0,11.862-10.248l52.86-358.018a12,12,0,0,0-11.872-13.753Zm0,24h0Z" style="fill: #333"/>
    </g>
    <polygon points="379.547 818.36 421.652 551.895 841.587 551.895 795.858 841.417 379.547 818.36" style="fill: #333"/>
    <g>
      <path d="M629.182,963.046c-.142,0-.284,0-.425-.015L144.573,928.683A6,6,0,0,1,139,922.7V889.823a6,6,0,0,1,5.073-5.927l211.377-33.028a5.979,5.979,0,0,1,.926-.072c.118,0,.237,0,.355.011l457.1,27.083a6,6,0,0,1,5.646,5.989v32.874a6,6,0,0,1-4.719,5.861L630.463,962.907A5.941,5.941,0,0,1,629.182,963.046Z" style="fill: #999"/>
      <path d="M356.374,856.8l457.1,27.083v32.874L629.181,957.046,145,922.7V889.823L356.374,856.8m0-12a11.99,11.99,0,0,0-1.853.144L143.145,877.967A12,12,0,0,0,133,889.823V922.7a12,12,0,0,0,11.151,11.969l484.183,34.349q.424.03.849.03a11.947,11.947,0,0,0,2.563-.277l184.294-40.293a12,12,0,0,0,9.437-11.723V883.879a12,12,0,0,0-11.29-11.979l-457.1-27.083q-.356-.021-.71-.021Z" style="fill: #333"/>
    </g>
    <polygon points="144.998 889.824 629.181 924.172 813.475 883.879 356.374 856.796 144.998 889.824" style="fill: #f5faff"/>
    <polygon points="264.681 881.199 622.035 906.551 714.418 886.352 377.052 866.364 264.681 881.199" style="fill: #666"/>
    <g>
      <path d="M407.281,468.026l-1.072-.428c-.606-.243-15.028-6.105-29.439-20.742-13.283-13.489-29.115-37.317-29.115-74.224,0-29.5,14.09-56.3,40.748-77.523a161.072,161.072,0,0,1,34.915-21,140.133,140.133,0,0,1-2.784-55.7c4.8-31.207,23.344-74.749,84.4-104.955C526.059,103,547.276,97.7,568,97.7c33.333,0,66.268,13.966,95.242,40.388a207.8,207.8,0,0,1,29.606,33.58c9.362-8.6,30.98-22.952,70.983-22.952a203.554,203.554,0,0,1,36.785,3.6c35.492,6.563,60.083,28.515,71.113,63.482a142.413,142.413,0,0,1,6.148,45.984,134.386,134.386,0,0,1,32.3,20.076c24.077,20.3,36.8,46.714,36.8,76.4,0,29.336-11.064,57.48-32,81.39-15.718,17.955-31.341,27.179-32,27.563l-1.4.819Z" style="fill: #f5faff"/>
      <path d="M568,103.7c77.8,0,124.044,77.642,124.044,77.642s18.4-26.627,71.785-26.626a196.467,196.467,0,0,1,35.7,3.5c81.13,15,72.116,107.523,72.116,107.523s69.342,24.38,69.342,92.52S879.96,462.026,879.96,462.026H408.435s-54.78-21.88-54.78-89.394,76.969-95.02,76.969-95.02-36.751-102.522,76.97-158.784C529.375,108.052,549.567,103.7,568,103.7m0-12c-21.653,0-43.766,5.509-65.726,16.373-27.724,13.716-49.4,31.318-64.438,52.316a131.564,131.564,0,0,0-23.231,57.1,147.38,147.38,0,0,0,1.737,53.214,167.5,167.5,0,0,0-31.674,19.708c-28.139,22.4-43.012,50.827-43.012,82.217,0,38.939,16.77,64.145,30.839,78.434,15.284,15.523,30.835,21.842,31.49,22.1l2.143.856h477.08l2.8-1.638c.692-.4,17.132-10.109,33.488-28.792,21.9-25.02,33.482-54.531,33.482-85.342,0-31.511-13.465-59.516-38.937-80.988a141.724,141.724,0,0,0-30.108-19.317,148.5,148.5,0,0,0-6.487-43.96c-11.74-37.217-37.931-60.585-75.744-67.578a209.652,209.652,0,0,0-37.876-3.7c-24.317,0-45.182,5.039-62.016,14.98a82.03,82.03,0,0,0-7.878,5.277,215.6,215.6,0,0,0-26.652-29.318A173.12,173.12,0,0,0,625.366,105,132.579,132.579,0,0,0,568,91.7Z" style="fill: #333"/>
    </g>
    <path d="M923.686,304.912a91.446,91.446,0,0,1,3.423,25.118c0,68.139-61.021,103.772-61.021,103.772H739.008c-.085-4.68-.134-9.51-.134-14.544,0-34.082,18.21-42.22,18.21-42.22H495.7s-22.032,0-22.032,40.679c0,5.559.114,10.906.32,16.085H394.563s-20.66-8.259-36.6-30.267c12.918,43.489,50.477,58.491,50.477,58.491h67.748c7.813,66.807,31.361,106.331,34.272,196.865,2.851,88.678-24.116,167.969-24.116,167.969l262.836,14.557S774.231,763.43,771.354,663.4c-2.682-93.26-25.666-110.456-31.256-201.37H879.96s61.021-35.633,61.021-103.772A88.481,88.481,0,0,0,923.686,304.912Z" style="fill: #1d1d1b;opacity: 0.2"/>
    <path d="M762.721,360.035H458.537c-10.072,0-18.238,7.214-18.238,16.114h0c0,8.9,8.166,16.115,18.238,16.115H762.721c10.073,0,18.239-7.215,18.239-16.115h0C780.96,367.249,772.794,360.035,762.721,360.035Z" style="fill: #333"/>
    <path d="M726.717,841.417,463.881,826.86S490.848,747.569,488,658.891c-3.5-108.764-36.783-143.9-36.783-241.174,0-40.679,22.031-40.679,22.031-40.679H734.625s-18.209,8.138-18.209,42.22c0,130.377,29.423,137.863,32.479,244.138C751.772,763.43,726.717,841.417,726.717,841.417Z" style="fill: #35bd9b"/>
    <polygon points="379.547 818.36 795.858 841.417 795.858 854.649 379.547 837.588 379.547 818.36" style="fill: #f5faff"/>
    <polygon points="629.181 924.172 629.181 957.046 813.475 916.753 813.475 883.879 629.181 924.172" style="fill: #666"/>
  </g>
  <g id="L1">
    <path d="M475.236,410.226c0-4.131,2.183-11.822,9.169-11.822s9.168,7.691,9.168,11.822c0,4.769-2.586,11.754-9.168,11.754S475.236,415,475.236,410.226Zm5.038-.034c0,3.157.873,7.221,4.131,7.221,3.19,0,4.131-4.131,4.131-7.154,0-2.955-.807-7.288-4.131-7.288C481.147,402.971,480.274,407.3,480.274,410.192Z" style="fill: #f5faff"/>
    <path d="M519.569,421.577h-5.037V404.718h-2.653v-3.46l7.69-2.518Z" style="fill: #f5faff"/>
    <path d="M539.554,410.226c0-4.131,2.182-11.822,9.168-11.822s9.169,7.691,9.169,11.822c0,4.769-2.586,11.754-9.169,11.754S539.554,415,539.554,410.226Zm5.037-.034c0,3.157.873,7.221,4.131,7.221,3.19,0,4.131-4.131,4.131-7.154,0-2.955-.806-7.288-4.131-7.288C545.464,402.971,544.591,407.3,544.591,410.192Z" style="fill: #f5faff"/>
    <path d="M568.64,410.226c0-4.131,2.182-11.822,9.168-11.822s9.169,7.691,9.169,11.822c0,4.769-2.586,11.754-9.169,11.754S568.64,415,568.64,410.226Zm5.037-.034c0,3.157.873,7.221,4.131,7.221,3.19,0,4.13-4.131,4.13-7.154,0-2.955-.8-7.288-4.13-7.288C574.55,402.971,573.677,407.3,573.677,410.192Z" style="fill: #f5faff"/>
    <path d="M604.576,421.577h-5.037V404.718h-2.653v-3.46l7.69-2.518Z" style="fill: #f5faff"/>
    <path d="M631.412,421.577h-5.037V404.718h-2.653v-3.46l7.69-2.518Z" style="fill: #f5faff"/>
    <path d="M651.4,410.226c0-4.131,2.183-11.822,9.168-11.822s9.169,7.691,9.169,11.822c0,4.769-2.586,11.754-9.169,11.754S651.4,415,651.4,410.226Zm5.038-.034c0,3.157.873,7.221,4.13,7.221,3.191,0,4.131-4.131,4.131-7.154,0-2.955-.805-7.288-4.131-7.288C657.307,402.971,656.434,407.3,656.434,410.192Z" style="fill: #f5faff"/>
    <path d="M687.333,421.577H682.3V404.718h-2.653v-3.46l7.69-2.518Z" style="fill: #f5faff"/>
  </g>
  <g id="L2">
    <path d="M475.63,457.762c0-4.131,2.183-11.822,9.169-11.822s9.169,7.691,9.169,11.822c0,4.769-2.586,11.755-9.169,11.755S475.63,462.531,475.63,457.762Zm5.038-.033c0,3.157.874,7.22,4.131,7.22,3.191,0,4.131-4.131,4.131-7.153,0-2.956-.806-7.288-4.131-7.288C481.542,450.508,480.668,454.84,480.668,457.729Z" style="fill: #f5faff"/>
    <path d="M511.567,469.114H506.53v-16.86h-2.653V448.8l7.69-2.519Z" style="fill: #f5faff"/>
    <path d="M538.4,469.114h-5.037v-16.86h-2.653V448.8l7.69-2.519Z" style="fill: #f5faff"/>
    <path d="M558.388,457.762c0-4.131,2.182-11.822,9.168-11.822s9.169,7.691,9.169,11.822c0,4.769-2.586,11.755-9.169,11.755S558.388,462.531,558.388,457.762Zm5.037-.033c0,3.157.873,7.22,4.131,7.22,3.19,0,4.131-4.131,4.131-7.153,0-2.956-.806-7.288-4.131-7.288C564.3,450.508,563.425,454.84,563.425,457.729Z" style="fill: #f5faff"/>
    <path d="M594.324,469.114h-5.037v-16.86h-2.653V448.8l7.69-2.519Z" style="fill: #f5faff"/>
    <path d="M621.159,469.114h-5.037v-16.86h-2.653V448.8l7.69-2.519Z" style="fill: #f5faff"/>
    <path d="M641.145,457.762c0-4.131,2.182-11.822,9.168-11.822s9.168,7.691,9.168,11.822c0,4.769-2.585,11.755-9.168,11.755S641.145,462.531,641.145,457.762Zm5.037-.033c0,3.157.873,7.22,4.131,7.22,3.19,0,4.13-4.131,4.13-7.153,0-2.956-.8-7.288-4.13-7.288C647.055,450.508,646.182,454.84,646.182,457.729Z" style="fill: #f5faff"/>
    <path d="M677.08,469.114h-5.037v-16.86H669.39V448.8l7.69-2.519Z" style="fill: #f5faff"/>
  </g>
  <g id="L3">
    <path d="M484.52,505.3c0-4.131,2.183-11.822,9.169-11.822s9.168,7.691,9.168,11.822c0,4.769-2.586,11.754-9.168,11.754S484.52,510.068,484.52,505.3Zm5.038-.034c0,3.157.873,7.221,4.131,7.221,3.19,0,4.131-4.131,4.131-7.153,0-2.956-.806-7.289-4.131-7.289C490.431,498.044,489.558,502.377,489.558,505.265Z" style="fill: #f5faff"/>
    <path d="M520.457,516.65H515.42V499.791h-2.653v-3.459l7.69-2.519Z" style="fill: #f5faff"/>
    <path d="M547.292,516.65h-5.037V499.791H539.6v-3.459l7.69-2.519Z" style="fill: #f5faff"/>
    <path d="M567.277,505.3c0-4.131,2.183-11.822,9.168-11.822s9.169,7.691,9.169,11.822c0,4.769-2.586,11.754-9.169,11.754S567.277,510.068,567.277,505.3Zm5.037-.034c0,3.157.874,7.221,4.131,7.221,3.191,0,4.131-4.131,4.131-7.153,0-2.956-.805-7.289-4.131-7.289C573.188,498.044,572.314,502.377,572.314,505.265Z" style="fill: #f5faff"/>
    <path d="M603.214,516.65h-5.037V499.791h-2.654v-3.459l7.691-2.519Z" style="fill: #f5faff"/>
    <path d="M630.049,516.65h-5.037V499.791h-2.654v-3.459l7.691-2.519Z" style="fill: #f5faff"/>
    <path d="M650.034,505.3c0-4.131,2.183-11.822,9.168-11.822s9.169,7.691,9.169,11.822c0,4.769-2.586,11.754-9.169,11.754S650.034,510.068,650.034,505.3Zm5.037-.034c0,3.157.873,7.221,4.131,7.221,3.191,0,4.131-4.131,4.131-7.153,0-2.956-.806-7.289-4.131-7.289C655.944,498.044,655.071,502.377,655.071,505.265Z" style="fill: #f5faff"/>
    <path d="M685.97,516.65h-5.037V499.791h-2.654v-3.459l7.691-2.519Z" style="fill: #f5faff"/>
  </g>
  <g id="L4">
    <path d="M496.337,552.835c0-4.131,2.183-11.821,9.169-11.821s9.168,7.69,9.168,11.821c0,4.769-2.586,11.755-9.168,11.755S496.337,557.6,496.337,552.835Zm5.038-.033c0,3.157.873,7.22,4.131,7.22,3.19,0,4.131-4.13,4.131-7.153,0-2.956-.806-7.288-4.131-7.288C502.248,545.581,501.375,549.913,501.375,552.8Z" style="fill: #f5faff"/>
    <path d="M540.67,564.187h-5.037v-16.86H532.98v-3.459l7.69-2.518Z" style="fill: #f5faff"/>
    <path d="M560.654,552.835c0-4.131,2.183-11.821,9.168-11.821s9.169,7.69,9.169,11.821c0,4.769-2.586,11.755-9.169,11.755S560.654,557.6,560.654,552.835Zm5.037-.033c0,3.157.873,7.22,4.131,7.22,3.191,0,4.131-4.13,4.131-7.153,0-2.956-.806-7.288-4.131-7.288C566.564,545.581,565.691,549.913,565.691,552.8Z" style="fill: #f5faff"/>
    <path d="M589.74,552.835c0-4.131,2.183-11.821,9.168-11.821s9.169,7.69,9.169,11.821c0,4.769-2.586,11.755-9.169,11.755S589.74,557.6,589.74,552.835Zm5.037-.033c0,3.157.873,7.22,4.131,7.22,3.191,0,4.131-4.13,4.131-7.153,0-2.956-.806-7.288-4.131-7.288C595.65,545.581,594.777,549.913,594.777,552.8Z" style="fill: #f5faff"/>
    <path d="M625.677,564.187H620.64v-16.86h-2.654v-3.459l7.691-2.518Z" style="fill: #f5faff"/>
    <path d="M652.513,564.187h-5.037v-16.86h-2.654v-3.459l7.691-2.518Z" style="fill: #f5faff"/>
    <path d="M672.5,552.835c0-4.131,2.183-11.821,9.168-11.821s9.169,7.69,9.169,11.821c0,4.769-2.586,11.755-9.169,11.755S672.5,557.6,672.5,552.835Zm5.037-.033c0,3.157.873,7.22,4.131,7.22,3.19,0,4.131-4.13,4.131-7.153,0-2.956-.806-7.288-4.131-7.288C678.407,545.581,677.534,549.913,677.534,552.8Z" style="fill: #f5faff"/>
    <path d="M708.434,564.187H703.4v-16.86h-2.653v-3.459l7.691-2.518Z" style="fill: #f5faff"/>
  </g>
  <g id="L5">
    <path d="M505.341,600.372c0-4.131,2.183-11.821,9.169-11.821s9.169,7.69,9.169,11.821c0,4.77-2.586,11.755-9.169,11.755S505.341,605.142,505.341,600.372Zm5.038-.033c0,3.157.873,7.221,4.131,7.221,3.191,0,4.131-4.131,4.131-7.154,0-2.956-.806-7.288-4.131-7.288C511.252,593.118,510.379,597.45,510.379,600.339Z" style="fill: #f5faff"/>
    <path d="M549.675,611.724h-5.037v-16.86h-2.654v-3.459l7.691-2.518Z" style="fill: #f5faff"/>
    <path d="M569.659,600.372c0-4.131,2.183-11.821,9.168-11.821S588,596.241,588,600.372c0,4.77-2.586,11.755-9.169,11.755S569.659,605.142,569.659,600.372Zm5.037-.033c0,3.157.873,7.221,4.131,7.221,3.191,0,4.131-4.131,4.131-7.154,0-2.956-.806-7.288-4.131-7.288C575.569,593.118,574.7,597.45,574.7,600.339Z" style="fill: #f5faff"/>
    <path d="M598.745,600.372c0-4.131,2.183-11.821,9.168-11.821s9.169,7.69,9.169,11.821c0,4.77-2.586,11.755-9.169,11.755S598.745,605.142,598.745,600.372Zm5.037-.033c0,3.157.873,7.221,4.131,7.221,3.191,0,4.131-4.131,4.131-7.154,0-2.956-.806-7.288-4.131-7.288C604.655,593.118,603.782,597.45,603.782,600.339Z" style="fill: #f5faff"/>
    <path d="M634.682,611.724h-5.037v-16.86h-2.654v-3.459l7.691-2.518Z" style="fill: #f5faff"/>
    <path d="M661.518,611.724H656.48v-16.86h-2.653v-3.459l7.691-2.518Z" style="fill: #f5faff"/>
    <path d="M681.5,600.372c0-4.131,2.183-11.821,9.168-11.821s9.169,7.69,9.169,11.821c0,4.77-2.586,11.755-9.169,11.755S681.5,605.142,681.5,600.372Zm5.037-.033c0,3.157.873,7.221,4.131,7.221,3.19,0,4.131-4.131,4.131-7.154,0-2.956-.806-7.288-4.131-7.288C687.412,593.118,686.539,597.45,686.539,600.339Z" style="fill: #f5faff"/>
    <path d="M717.438,611.724H712.4v-16.86h-2.653v-3.459l7.69-2.518Z" style="fill: #f5faff"/>
  </g>
  <g id="L6">
    <path d="M509.818,647.908c0-4.131,2.183-11.821,9.169-11.821s9.169,7.69,9.169,11.821c0,4.77-2.586,11.755-9.169,11.755S509.818,652.678,509.818,647.908Zm5.038-.033c0,3.157.873,7.221,4.131,7.221,3.191,0,4.131-4.131,4.131-7.154,0-2.956-.806-7.288-4.131-7.288C515.729,640.654,514.856,644.986,514.856,647.875Z" style="fill: #f5faff"/>
    <path d="M554.151,659.26h-5.037V642.4h-2.653v-3.459l7.69-2.518Z" style="fill: #f5faff"/>
    <path d="M574.136,647.908c0-4.131,2.182-11.821,9.168-11.821s9.169,7.69,9.169,11.821c0,4.77-2.586,11.755-9.169,11.755S574.136,652.678,574.136,647.908Zm5.037-.033c0,3.157.873,7.221,4.131,7.221,3.19,0,4.131-4.131,4.131-7.154,0-2.956-.806-7.288-4.131-7.288C580.046,640.654,579.173,644.986,579.173,647.875Z" style="fill: #f5faff"/>
    <path d="M603.222,647.908c0-4.131,2.182-11.821,9.168-11.821s9.169,7.69,9.169,11.821c0,4.77-2.586,11.755-9.169,11.755S603.222,652.678,603.222,647.908Zm5.037-.033c0,3.157.873,7.221,4.131,7.221,3.19,0,4.131-4.131,4.131-7.154,0-2.956-.806-7.288-4.131-7.288C609.132,640.654,608.259,644.986,608.259,647.875Z" style="fill: #f5faff"/>
    <path d="M639.158,659.26h-5.037V642.4h-2.653v-3.459l7.69-2.518Z" style="fill: #f5faff"/>
    <path d="M665.994,659.26h-5.037V642.4H658.3v-3.459l7.69-2.518Z" style="fill: #f5faff"/>
    <path d="M685.979,647.908c0-4.131,2.182-11.821,9.167-11.821s9.169,7.69,9.169,11.821c0,4.77-2.586,11.755-9.169,11.755S685.979,652.678,685.979,647.908Zm5.037-.033c0,3.157.873,7.221,4.13,7.221,3.191,0,4.131-4.131,4.131-7.154,0-2.956-.805-7.288-4.131-7.288C691.889,640.654,691.016,644.986,691.016,647.875Z" style="fill: #f5faff"/>
    <path d="M721.915,659.26h-5.037V642.4h-2.653v-3.459l7.69-2.518Z" style="fill: #f5faff"/>
  </g>
  <g id="L7">
    <path d="M510.337,695.445c0-4.131,2.183-11.822,9.169-11.822s9.168,7.691,9.168,11.822c0,4.769-2.586,11.754-9.168,11.754S510.337,700.214,510.337,695.445Zm5.038-.034c0,3.157.873,7.221,4.131,7.221,3.19,0,4.131-4.131,4.131-7.153,0-2.956-.806-7.289-4.131-7.289C516.248,688.19,515.375,692.523,515.375,695.411Z" style="fill: #f5faff"/>
    <path d="M546.274,706.8h-5.037V689.938h-2.654v-3.46l7.691-2.519Z" style="fill: #f5faff"/>
    <path d="M573.109,706.8h-5.037V689.938h-2.653v-3.46l7.69-2.519Z" style="fill: #f5faff"/>
    <path d="M593.1,695.445c0-4.131,2.182-11.822,9.168-11.822s9.169,7.691,9.169,11.822c0,4.769-2.586,11.754-9.169,11.754S593.1,700.214,593.1,695.445Zm5.037-.034c0,3.157.873,7.221,4.131,7.221,3.19,0,4.131-4.131,4.131-7.153,0-2.956-.806-7.289-4.131-7.289C599.005,688.19,598.132,692.523,598.132,695.411Z" style="fill: #f5faff"/>
    <path d="M629.031,706.8h-5.037V689.938h-2.653v-3.46l7.69-2.519Z" style="fill: #f5faff"/>
    <path d="M655.866,706.8h-5.037V689.938h-2.653v-3.46l7.69-2.519Z" style="fill: #f5faff"/>
    <path d="M675.852,695.445c0-4.131,2.182-11.822,9.168-11.822s9.168,7.691,9.168,11.822c0,4.769-2.585,11.754-9.168,11.754S675.852,700.214,675.852,695.445Zm5.037-.034c0,3.157.873,7.221,4.131,7.221,3.19,0,4.13-4.131,4.13-7.153,0-2.956-.8-7.289-4.13-7.289C681.762,688.19,680.889,692.523,680.889,695.411Z" style="fill: #f5faff"/>
    <path d="M711.787,706.8H706.75V689.938H704.1v-3.46l7.69-2.519Z" style="fill: #f5faff"/>
  </g>
  <g id="L8">
    <path d="M505.731,743.981c0-4.13,2.184-11.821,9.169-11.821s9.169,7.691,9.169,11.821c0,4.77-2.586,11.755-9.169,11.755S505.731,748.751,505.731,743.981Zm5.039-.033c0,3.157.873,7.221,4.13,7.221,3.191,0,4.131-4.131,4.131-7.153,0-2.956-.806-7.288-4.131-7.288C511.643,736.728,510.77,741.06,510.77,743.948Z" style="fill: #f5faff"/>
    <path d="M541.669,755.333h-5.038V738.474h-2.653v-3.459l7.691-2.519Z" style="fill: #f5faff"/>
    <path d="M568.5,755.333h-5.037V738.474h-2.654v-3.459L568.5,732.5Z" style="fill: #f5faff"/>
    <path d="M588.489,743.981c0-4.13,2.183-11.821,9.168-11.821s9.169,7.691,9.169,11.821c0,4.77-2.586,11.755-9.169,11.755S588.489,748.751,588.489,743.981Zm5.037-.033c0,3.157.873,7.221,4.131,7.221,3.191,0,4.131-4.131,4.131-7.153,0-2.956-.806-7.288-4.131-7.288C594.4,736.728,593.526,741.06,593.526,743.948Z" style="fill: #f5faff"/>
    <path d="M624.426,755.333h-5.037V738.474h-2.654v-3.459l7.691-2.519Z" style="fill: #f5faff"/>
    <path d="M651.261,755.333h-5.037V738.474H643.57v-3.459l7.691-2.519Z" style="fill: #f5faff"/>
    <path d="M671.246,743.981c0-4.13,2.183-11.821,9.168-11.821s9.169,7.691,9.169,11.821c0,4.77-2.586,11.755-9.169,11.755S671.246,748.751,671.246,743.981Zm5.037-.033c0,3.157.873,7.221,4.131,7.221,3.19,0,4.131-4.131,4.131-7.153,0-2.956-.806-7.288-4.131-7.288C677.156,736.728,676.283,741.06,676.283,743.948Z" style="fill: #f5faff"/>
    <path d="M707.182,755.333h-5.037V738.474h-2.654v-3.459l7.691-2.519Z" style="fill: #f5faff"/>
  </g>
  <g id="L9">
    <path d="M496.686,790.519c0-4.131,2.183-11.823,9.168-11.823s9.169,7.692,9.169,11.823c0,4.768-2.586,11.753-9.169,11.753S496.686,795.287,496.686,790.519Zm5.038-.035c0,3.158.873,7.221,4.13,7.221,3.191,0,4.131-4.131,4.131-7.153,0-2.955-.806-7.288-4.131-7.288C502.6,783.264,501.724,787.6,501.724,790.484Z" style="fill: #f5faff"/>
    <path d="M532.623,801.87h-5.038V785.011h-2.653v-3.46l7.691-2.519Z" style="fill: #f5faff"/>
    <path d="M559.458,801.87h-5.037V785.011h-2.653v-3.46l7.69-2.519Z" style="fill: #f5faff"/>
    <path d="M579.443,790.519c0-4.131,2.183-11.823,9.168-11.823s9.169,7.692,9.169,11.823c0,4.768-2.586,11.753-9.169,11.753S579.443,795.287,579.443,790.519Zm5.037-.035c0,3.158.874,7.221,4.131,7.221,3.191,0,4.131-4.131,4.131-7.153,0-2.955-.8-7.288-4.131-7.288C585.354,783.264,584.48,787.6,584.48,790.484Z" style="fill: #f5faff"/>
    <path d="M615.38,801.87h-5.037V785.011h-2.654v-3.46l7.691-2.519Z" style="fill: #f5faff"/>
    <path d="M642.215,801.87h-5.037V785.011h-2.654v-3.46l7.691-2.519Z" style="fill: #f5faff"/>
    <path d="M662.2,790.519c0-4.131,2.183-11.823,9.168-11.823s9.169,7.692,9.169,11.823c0,4.768-2.586,11.753-9.169,11.753S662.2,795.287,662.2,790.519Zm5.037-.035c0,3.158.873,7.221,4.131,7.221,3.191,0,4.131-4.131,4.131-7.153,0-2.955-.806-7.288-4.131-7.288C668.11,783.264,667.237,787.6,667.237,790.484Z" style="fill: #f5faff"/>
    <path d="M698.136,801.87H693.1V785.011h-2.654v-3.46l7.691-2.519Z" style="fill: #f5faff"/>
  </g>
</g>
</svg>
